<?xml version="1.0" standalone="no"?>
<!DOCTYPE svg PUBLIC "-//W3C//DTD SVG 20010904//EN"
 "http://www.w3.org/TR/2001/REC-SVG-20010904/DTD/svg10.dtd">
<svg version="1.0" xmlns="http://www.w3.org/2000/svg"
 width="670.000000pt" height="670.000000pt" viewBox="0 0 670.000000 670.000000"
 preserveAspectRatio="xMidYMid meet">

<g transform="translate(0.000000,670.000000) scale(0.100000,-0.100000)"
fill="#000000" stroke="none">
<path d="M3197 6514 c-266 -48 -493 -221 -612 -467 -58 -121 -75 -188 -82
-327 -10 -193 34 -354 141 -514 158 -238 417 -376 706 -376 388 0 719 255 822
632 19 69 23 106 22 223 -1 121 -5 152 -28 228 -32 106 -69 182 -129 263 -197
268 -517 396 -840 338z m87 -96 c-5 -7 -156 -211 -338 -453 -357 -476 -344
-463 -345 -341 l-1 59 266 356 c147 196 269 358 271 360 4 6 111 29 136 30 12
1 16 -3 11 -11z m189 4 l38 -7 -412 -549 c-398 -531 -412 -548 -425 -525 -7
13 -18 39 -25 57 -11 33 -11 33 363 532 405 541 373 508 461 492z m190 -59
c17 -9 25 -18 20 -26 -4 -7 -99 -136 -211 -287 l-204 -275 212 -3 c169 -2 211
-5 207 -15 -8 -21 -577 -782 -587 -785 -5 -2 -30 6 -55 17 l-45 20 241 323
241 323 -215 5 -215 5 111 150 c62 83 183 246 270 363 171 231 159 221 230
185z m-854 -278 c-106 -141 -194 -254 -195 -252 -8 8 30 115 62 181 37 74 102
162 156 212 38 36 147 114 160 114 4 0 -78 -115 -183 -255z m995 192 l38 -32
-158 -207 -159 -207 -68 -1 -68 0 113 148 c62 81 145 189 183 239 39 51 73 93
76 93 3 0 23 -15 43 -33z m133 -128 l31 -40 -106 -140 -107 -139 -62 0 c-35 0
-63 3 -63 8 0 4 16 27 36 52 20 25 79 102 132 173 53 70 99 127 102 127 3 0
20 -18 37 -41z m98 -159 l25 -50 -377 -504 -378 -505 -40 0 c-101 2 -124 -39
326 562 225 301 412 547 414 547 3 0 16 -22 30 -50z m64 -258 l1 -53 -272
-364 -273 -364 -52 -11 c-109 -23 -110 -25 63 205 515 688 518 691 525 665 4
-14 7 -49 8 -78z m-976 -154 c-6 -12 -169 -225 -277 -365 l-41 -52 -27 26
c-54 52 -58 43 175 341 l49 62 64 0 c50 0 63 -3 57 -12z m166 -80 c-39 -51
-132 -173 -207 -270 -74 -98 -140 -178 -146 -178 -6 0 -27 13 -46 29 l-34 29
83 108 c46 60 129 169 184 242 l102 132 68 0 68 0 -72 -92z m776 -54 c-50
-150 -153 -289 -279 -378 -89 -63 -94 -64 -61 -20 260 349 360 482 363 479 2
-1 -9 -38 -23 -81z"/>
<path d="M1290 3896 c0 -570 3 -1036 7 -1036 4 0 82 30 175 66 l168 66 0 269
0 269 43 0 c23 0 81 5 127 10 195 24 301 125 330 317 8 48 10 201 8 440 -4
358 -4 370 -27 427 -32 79 -98 146 -176 177 -57 23 -73 24 -357 27 l-298 3 0
-1035z m482 714 c17 -21 18 -47 18 -356 0 -223 -4 -341 -11 -357 -14 -31 -48
-47 -99 -47 l-40 0 0 396 0 396 57 -4 c43 -4 61 -10 75 -28z"/>
<path d="M2453 4681 c-59 -20 -112 -58 -143 -102 -49 -68 -50 -84 -50 -690 0
-543 1 -571 20 -622 24 -63 76 -117 145 -149 43 -20 66 -23 165 -23 106 0 120
2 172 28 32 16 73 47 93 70 66 77 66 78 63 723 l-3 579 -30 55 c-36 65 -96
114 -167 135 -70 21 -200 19 -265 -4z m166 -221 c27 0 31 -65 31 -558 0 -556
0 -555 -57 -560 -64 -6 -63 -16 -63 555 0 296 4 522 9 537 10 24 34 37 59 30
8 -2 17 -4 21 -4z"/>
<path d="M2965 4638 c8 -62 165 -1502 165 -1516 0 -10 31 -12 122 -10 l123 3
43 400 c39 363 52 446 66 404 4 -12 86 -779 86 -801 0 -5 54 -8 120 -8 l119 0
6 33 c3 17 43 361 90 762 47 402 86 740 89 753 3 22 2 22 -123 22 l-127 0 -33
-432 c-18 -238 -34 -435 -37 -437 -15 -16 -26 58 -65 439 l-44 425 -85 3 -86
3 -48 -423 c-44 -390 -57 -466 -70 -427 -3 8 -17 192 -31 409 -14 217 -28 405
-31 418 -4 21 -8 22 -130 22 l-125 0 6 -42z"/>
<path d="M4050 3895 l0 -785 474 0 475 0 -14 48 c-8 26 -25 82 -38 125 l-23
78 -302 -1 -302 -1 0 211 0 210 105 0 105 0 0 125 0 125 -105 0 -105 0 0 200
0 199 123 3 122 3 3 123 3 122 -261 0 -260 0 0 -785z"/>
<path d="M4645 4066 l0 -616 132 0 132 0 3 105 c2 59 7 106 13 108 6 1 52
-123 103 -275 l94 -278 139 0 c76 0 139 3 139 7 0 5 -52 163 -115 354 l-115
345 43 45 c72 75 79 113 75 401 -3 227 -4 246 -25 283 -27 51 -68 89 -118 112
-34 15 -76 18 -270 21 l-230 4 0 -616z m353 378 c21 -15 22 -20 22 -201 0
-212 -3 -223 -72 -223 l-38 0 0 220 0 220 33 0 c18 0 43 -7 55 -16z"/>
<path d="M2070 1949 c0 -573 4 -1039 9 -1037 4 2 83 32 175 67 l166 65 0 273
0 273 83 0 c170 0 283 45 350 140 68 98 70 111 75 529 5 475 -4 533 -96 626
-84 85 -181 105 -521 105 l-241 0 0 -1041z m475 716 l25 -24 0 -340 0 -340
-23 -27 c-18 -21 -35 -28 -75 -32 l-52 -5 0 397 0 396 50 0 c41 0 56 -5 75
-25z"/>
<path d="M3012 2246 l3 -744 25 -27 c50 -55 51 -55 560 -55 l470 0 0 135 0
135 -395 0 -395 0 0 650 0 650 -135 0 -135 0 2 -744z"/>
<path d="M3556 2958 c-100 -542 -206 -1124 -206 -1135 0 -10 27 -13 124 -13
142 0 129 -11 142 118 l7 73 67 34 68 34 5 -32 c3 -18 11 -76 18 -129 l11 -98
129 0 c71 0 129 4 129 8 0 5 -49 267 -110 583 -60 316 -110 577 -110 582 0 4
-60 7 -134 7 l-134 0 -6 -32z m157 -510 c4 -18 9 -60 13 -93 l6 -60 -36 -17
c-43 -21 -41 -28 -24 108 12 97 30 125 41 62z"/>
<path d="M3940 2979 c0 -6 45 -271 100 -589 l100 -577 0 -197 0 -197 138 3
137 3 6 235 c5 224 8 246 52 480 73 392 147 808 147 830 0 19 -6 20 -130 20
-97 0 -130 -3 -130 -12 -2 -53 -69 -660 -74 -665 -3 -4 -8 -4 -11 -1 -3 2 -20
155 -38 339 l-32 334 -133 3 c-92 2 -132 -1 -132 -9z"/>
<path d="M4495 1534 c-9 -9 -14 -23 -11 -31 3 -8 6 -17 6 -19 0 -2 6 -4 13 -4
7 0 22 -7 33 -15 18 -15 17 -15 -13 -13 -40 3 -46 -14 -10 -26 55 -20 82 46
27 67 -36 14 -40 31 -5 25 29 -6 45 10 24 23 -21 13 -46 11 -64 -7z"/>
<path d="M4600 1485 c0 -37 4 -65 10 -65 6 0 10 17 10 38 l1 37 18 -22 19 -23
15 23 c16 22 16 21 16 -16 1 -60 25 -41 29 23 4 68 -11 85 -42 47 l-23 -28
-17 25 c-26 41 -36 31 -36 -39z"/>
<path d="M3080 754 c0 -41 24 -154 33 -154 6 0 7 17 3 43 -4 23 -10 61 -13 85
-5 40 -23 60 -23 26z"/>
<path d="M3162 706 c-13 -69 -15 -113 -6 -103 5 5 34 140 34 160 0 4 -4 7 -8
7 -5 0 -14 -29 -20 -64z"/>
<path d="M3550 645 l0 -115 30 0 c27 0 30 3 30 34 0 51 25 54 50 6 17 -33 26
-40 50 -40 37 0 37 5 4 53 -23 34 -24 39 -10 53 17 16 21 71 8 90 -14 22 -52
34 -106 34 l-56 0 0 -115z m113 53 c7 -21 -12 -48 -33 -48 -16 0 -20 7 -20 30
0 25 4 30 24 30 13 0 26 -6 29 -12z"/>
<path d="M4272 648 l3 -113 27 -3 c26 -3 27 -1 30 50 2 41 7 54 21 56 14 3 17
-5 17 -52 0 -56 0 -56 30 -56 30 0 30 0 30 58 0 77 -20 106 -66 99 -34 -6 -34
-5 -34 34 0 37 -2 39 -30 39 l-31 0 3 -112z"/>
<path d="M2990 728 c0 -16 72 -138 82 -138 15 0 8 22 -29 85 -36 62 -53 79
-53 53z"/>
<path d="M3227 673 c-21 -36 -36 -71 -34 -76 3 -9 87 124 87 137 0 20 -20 -3
-53 -61z"/>
<path d="M4150 710 c0 -11 -7 -20 -15 -20 -8 0 -15 -9 -15 -20 0 -11 7 -23 15
-26 9 -4 15 -19 15 -41 0 -55 15 -73 60 -73 33 0 40 3 40 20 0 13 -7 20 -19
20 -36 0 -44 67 -8 72 14 2 23 11 25 26 3 18 -1 22 -22 22 -19 0 -26 5 -26 20
0 15 -7 20 -25 20 -18 0 -25 -5 -25 -20z"/>
<path d="M3770 667 c-24 -25 -26 -83 -5 -114 13 -19 24 -22 85 -21 l70 0 0 78
0 78 -65 0 c-54 0 -69 -3 -85 -21z m88 -58 c4 -31 -18 -44 -43 -25 -25 18 -11
58 18 54 15 -2 23 -11 25 -29z"/>
<path d="M3930 686 c0 -2 14 -34 31 -72 32 -71 32 -69 4 -137 -7 -16 -4 -18
20 -15 26 3 33 14 77 113 26 60 48 111 48 112 0 2 -13 3 -29 3 -26 0 -31 -6
-44 -42 l-14 -43 -18 43 c-15 36 -21 42 -46 42 -16 0 -29 -2 -29 -4z"/>
<path d="M4475 665 c-55 -54 -15 -135 67 -135 24 0 48 4 55 8 22 14 -4 36 -43
36 -56 1 -52 21 4 21 40 0 47 3 50 21 2 11 -7 32 -18 47 -29 36 -81 37 -115 2z
m80 -25 c4 -6 -5 -10 -19 -10 -14 0 -26 5 -26 10 0 6 9 10 19 10 11 0 23 -4
26 -10z"/>
<path d="M4655 665 c-33 -32 -34 -83 -2 -113 33 -31 90 -30 122 3 52 51 15
135 -60 135 -25 0 -44 -8 -60 -25z m91 -47 c9 -29 -20 -57 -44 -42 -24 15 -27
45 -7 60 21 16 42 8 51 -18z"/>
<path d="M4820 609 l0 -79 30 0 c30 0 30 1 30 55 0 48 2 55 20 55 18 0 20 -7
20 -56 0 -54 0 -55 28 -52 25 3 27 7 30 53 1 28 -4 61 -11 75 -11 23 -19 25
-80 27 l-67 2 0 -80z"/>
<path d="M2916 672 c-6 -9 111 -112 126 -112 22 0 1 30 -48 70 -62 51 -70 55
-78 42z"/>
<path d="M3285 628 c-62 -52 -89 -87 -39 -50 55 41 109 91 103 96 -2 3 -31
-18 -64 -46z"/>
<path d="M2870 586 c0 -14 137 -69 151 -60 20 12 6 23 -62 48 -81 30 -89 31
-89 12z"/>
<path d="M3246 506 c8 -34 -23 -94 -57 -111 -56 -30 -126 -9 -154 45 -9 17
-17 30 -20 30 -2 0 -36 -12 -74 -26 -54 -20 -71 -31 -71 -45 0 -24 -4 -24 76
6 37 14 68 24 70 22 2 -1 -22 -23 -52 -47 -51 -40 -65 -68 -38 -77 6 -2 31 15
56 37 25 22 49 40 52 40 3 0 -9 -27 -27 -60 -27 -51 -30 -62 -17 -70 23 -15
24 -14 55 44 16 30 31 53 33 51 2 -2 -1 -29 -7 -61 -9 -45 -8 -60 1 -66 27
-16 36 -6 48 54 l13 63 11 -60 c7 -37 16 -60 24 -59 40 3 40 3 31 47 -13 69
-10 74 18 27 14 -25 28 -47 30 -49 1 -2 14 2 28 9 l25 13 -25 44 c-30 50 -23
55 20 13 l31 -30 23 24 22 24 -36 27 c-43 34 -40 40 8 20 46 -19 43 -20 55 14
10 27 8 30 -26 44 l-37 15 38 1 c36 1 37 2 37 36 l0 35 -85 0 c-85 0 -85 0
-79 -24z"/>
<path d="M1310 455 c0 -30 5 -55 10 -55 6 0 10 9 10 19 0 12 8 21 21 23 55 8
50 68 -6 68 l-35 0 0 -55z m58 23 c-7 -19 -38 -22 -38 -4 0 10 9 16 21 16 12
0 19 -5 17 -12z"/>
<path d="M1420 455 c0 -57 16 -76 22 -27 l4 27 14 -27 c7 -16 19 -28 27 -28
11 0 11 5 3 20 -8 14 -8 26 0 41 15 27 -3 49 -41 49 -28 0 -29 -1 -29 -55z
m48 23 c-6 -18 -28 -21 -28 -4 0 9 7 16 16 16 9 0 14 -5 12 -12z"/>
<path d="M1530 455 l0 -55 35 0 c19 0 35 5 35 10 0 6 -11 10 -25 10 -16 0 -25
6 -25 15 0 8 9 15 20 15 11 0 20 5 20 10 0 6 -9 10 -20 10 -11 0 -20 5 -20 10
0 6 11 10 25 10 14 0 25 5 25 10 0 6 -16 10 -35 10 l-35 0 0 -55z"/>
<path d="M1637 503 c-16 -15 -6 -44 18 -53 32 -12 32 -32 0 -28 -13 2 -24 -1
-25 -7 0 -5 15 -10 33 -10 27 0 32 4 35 27 3 22 -2 29 -22 34 -33 8 -34 24 -1
24 14 0 25 5 25 10 0 11 -53 14 -63 3z"/>
<path d="M1730 455 l0 -55 40 0 c22 0 40 5 40 10 0 6 -11 10 -25 10 -16 0 -25
6 -25 15 0 8 9 15 20 15 11 0 20 5 20 10 0 6 -9 10 -19 10 -11 0 -23 5 -26 10
-3 6 5 10 19 10 14 0 28 5 31 10 4 6 -10 10 -34 10 l-41 0 0 -55z"/>
<path d="M1840 455 c0 -30 5 -55 10 -55 6 0 10 15 10 33 l0 32 21 -32 c12 -18
25 -33 30 -33 5 0 9 25 9 55 0 30 -4 55 -10 55 -5 0 -10 -15 -10 -32 l0 -33
-20 33 c-28 46 -40 40 -40 -23z"/>
<path d="M1950 500 c0 -5 7 -10 15 -10 11 0 15 -12 15 -45 0 -25 5 -45 10 -45
6 0 10 20 10 45 0 33 4 45 15 45 8 0 15 5 15 10 0 6 -18 10 -40 10 -22 0 -40
-4 -40 -10z"/>
<path d="M2060 455 l0 -55 35 0 c19 0 35 5 35 10 0 6 -11 10 -25 10 -16 0 -25
6 -25 15 0 8 9 15 20 15 11 0 20 5 20 10 0 6 -9 10 -20 10 -11 0 -20 5 -20 10
0 6 11 10 25 10 14 0 25 5 25 10 0 6 -16 10 -35 10 l-35 0 0 -55z"/>
<path d="M2160 456 c0 -55 1 -56 29 -56 38 0 53 20 49 67 -3 36 -5 38 -40 41
l-38 3 0 -55z m55 -1 c0 -20 -6 -31 -17 -33 -15 -3 -18 4 -18 33 0 29 3 36 18
33 11 -2 17 -13 17 -33z"/>
<path d="M2320 455 c0 -54 1 -55 29 -55 44 0 54 23 42 103 -1 4 -17 7 -36 7
l-35 0 0 -55z m50 25 c0 -5 -7 -10 -15 -10 -8 0 -15 5 -15 10 0 6 7 10 15 10
8 0 15 -4 15 -10z m3 -45 c1 -5 -6 -11 -15 -13 -11 -2 -18 3 -18 13 0 17 30
18 33 0z"/>
<path d="M2420 503 c0 -5 7 -17 15 -27 8 -11 15 -32 15 -48 0 -15 5 -28 10
-28 6 0 10 9 10 20 0 12 7 35 16 51 18 36 9 53 -12 24 -14 -19 -16 -19 -25 -2
-10 17 -29 24 -29 10z"/>
<path d="M2850 495 c0 -12 16 -15 85 -15 69 0 85 3 85 15 0 12 -16 15 -85 15
-69 0 -85 -3 -85 -15z"/>
<path d="M3540 430 c0 -5 18 -10 40 -10 l40 0 0 -100 c0 -82 3 -100 15 -100
12 0 15 18 15 100 l0 100 40 0 c22 0 40 5 40 10 0 6 -38 10 -95 10 -57 0 -95
-4 -95 -10z"/>
<path d="M4050 330 c0 -91 3 -110 15 -110 11 0 15 12 15 49 0 47 17 81 40 81
23 0 40 -34 40 -81 0 -27 5 -49 10 -49 17 0 12 116 -6 134 -18 19 -55 21 -72
4 -9 -9 -12 -2 -12 35 0 35 -4 47 -15 47 -12 0 -15 -19 -15 -110z"/>
<path d="M4590 330 c0 -91 3 -110 15 -110 12 0 15 19 15 110 0 91 -3 110 -15
110 -12 0 -15 -19 -15 -110z"/>
<path d="M5040 420 c0 -13 5 -20 13 -17 6 2 12 10 12 17 0 7 -6 15 -12 18 -8
2 -13 -5 -13 -18z"/>
<path d="M3741 353 c-12 -10 -24 -35 -27 -55 -5 -30 -2 -41 19 -62 26 -26 66
-33 101 -20 30 11 16 24 -24 22 -37 -1 -70 14 -70 33 0 5 25 9 55 9 54 0 55 0
55 29 0 53 -66 79 -109 44z m73 -19 c26 -25 19 -34 -29 -34 -25 0 -45 4 -45 9
0 14 30 41 45 41 7 0 21 -7 29 -16z"/>
<path d="M3917 350 c-59 -47 -18 -146 57 -138 43 4 45 26 1 25 -40 -1 -51 7
-60 45 -10 39 25 72 67 63 23 -6 29 -4 26 6 -8 23 -61 22 -91 -1z"/>
<path d="M4237 363 c-4 -3 -7 -37 -7 -75 0 -54 3 -68 15 -68 11 0 15 13 15 54
0 59 16 82 50 71 17 -5 20 -15 20 -66 0 -46 3 -59 15 -59 24 0 21 112 -3 133
-21 19 -57 22 -67 7 -5 -8 -11 -8 -19 -1 -7 6 -16 8 -19 4z"/>
<path d="M4425 345 c-16 -15 -25 -36 -25 -55 0 -38 39 -80 73 -80 42 0 77 36
77 80 0 71 -76 104 -125 55z m85 -15 c46 -46 5 -108 -57 -86 -32 10 -35 71 -5
94 22 17 39 15 62 -8z"/>
<path d="M4682 347 c-69 -74 32 -184 103 -112 16 15 25 36 25 55 0 68 -83 105
-128 57z m82 -13 c36 -36 2 -112 -43 -97 -42 15 -53 61 -21 93 24 24 43 25 64
4z"/>
<path d="M4865 345 c-16 -15 -25 -36 -25 -55 0 -19 9 -40 25 -55 24 -25 69
-33 80 -15 3 6 10 10 16 10 16 0 10 -29 -12 -51 -16 -16 -29 -20 -56 -16 -24
4 -33 2 -30 -6 2 -7 22 -13 45 -15 31 -2 46 2 61 17 18 18 21 33 21 116 0 84
-10 119 -23 83 -4 -10 -7 -10 -18 0 -21 19 -58 14 -84 -13z m83 -11 c28 -19
29 -57 2 -84 -24 -24 -29 -24 -58 -4 -14 10 -22 26 -22 44 0 25 29 60 50 60 3
0 16 -7 28 -16z"/>
<path d="M5046 363 c-3 -3 -6 -37 -6 -75 0 -54 3 -68 15 -68 12 0 15 14 15 69
0 65 -8 90 -24 74z"/>
<path d="M5132 350 c-24 -23 -30 -77 -12 -110 11 -21 67 -35 99 -25 35 11 23
24 -20 22 -31 -1 -45 4 -56 18 -13 19 -12 20 44 25 54 5 58 6 55 29 -6 58 -68
80 -110 41z m69 -10 c36 -20 23 -40 -27 -40 -46 0 -48 3 -21 38 12 15 22 15
48 2z"/>
<path d="M5296 354 c-24 -24 -16 -46 24 -66 49 -25 48 -54 -2 -51 -39 2 -51
-10 -22 -21 28 -11 62 -6 78 10 28 27 19 52 -25 74 -46 24 -47 46 0 43 41 -2
36 21 -6 25 -19 2 -37 -3 -47 -14z"/>
</g>
</svg>
